<svg width="50" height="50" viewBox="0 0 50 50" fill="none" xmlns="http://www.w3.org/2000/svg">
<path d="M18.1034 12.069H13.793V7.75868C13.793 7.28195 13.4068 6.89661 12.931 6.89661C12.4551 6.89661 12.0689 7.28195 12.0689 7.75868V12.069H7.75855C7.28269 12.069 6.89648 12.4544 6.89648 12.9311C6.89648 13.4078 7.28269 13.7932 7.75855 13.7932H12.0689V18.1035C12.0689 18.5802 12.4551 18.9656 12.931 18.9656C13.4068 18.9656 13.793 18.5802 13.793 18.1035V13.7932H18.1034C18.5792 13.7932 18.9655 13.4078 18.9655 12.9311C18.9655 12.4544 18.5792 12.069 18.1034 12.069Z" fill="white"/>
<path d="M42.2411 12.0691H31.8962C31.4204 12.0691 31.0342 12.4544 31.0342 12.9312C31.0342 13.4079 31.4204 13.7932 31.8962 13.7932H42.2411C42.7169 13.7932 43.1031 13.4079 43.1031 12.9312C43.1031 12.4544 42.7169 12.0691 42.2411 12.0691Z" fill="white"/>
<path d="M25.8621 0H24.1379H0V24.1379V25.8621V50H24.1379H25.8621H50V25.8621V24.1379V0H25.8621ZM1.72414 1.72414H24.1379V24.1379H1.72414V1.72414ZM1.72414 48.2759V25.8621H24.1379V48.2759H1.72414ZM48.2759 48.2759H25.8621V25.8621H48.2759V48.2759ZM25.8621 24.1379V1.72414H48.2759V24.1379H25.8621Z" fill="white"/>
<path d="M31.8962 40.5173H42.2411C42.7169 40.5173 43.1031 40.132 43.1031 39.6553C43.1031 39.1786 42.7169 38.7932 42.2411 38.7932H31.8962C31.4204 38.7932 31.0342 39.1786 31.0342 39.6553C31.0342 40.132 31.4204 40.5173 31.8962 40.5173Z" fill="white"/>
<path d="M31.8962 35.3447H42.2411C42.7169 35.3447 43.1031 34.9594 43.1031 34.4827C43.1031 34.006 42.7169 33.6206 42.2411 33.6206H31.8962C31.4204 33.6206 31.0342 34.006 31.0342 34.4827C31.0342 34.9594 31.4204 35.3447 31.8962 35.3447Z" fill="white"/>
<path d="M17.8512 32.1492C17.5142 31.8121 16.9693 31.8121 16.6323 32.1492L12.9314 35.85L9.23056 32.1492C8.89349 31.8121 8.34866 31.8121 8.01159 32.1492C7.67452 32.4862 7.67452 33.0311 8.01159 33.3681L11.7125 37.069L8.01159 40.7698C7.67452 41.1069 7.67452 41.6517 8.01159 41.9888C8.17969 42.1569 8.40038 42.2414 8.62107 42.2414C8.84176 42.2414 9.06245 42.1569 9.23056 41.9888L12.9314 38.288L16.6323 41.9888C16.8004 42.1569 17.0211 42.2414 17.2418 42.2414C17.4625 42.2414 17.6831 42.1569 17.8512 41.9888C18.1883 41.6517 18.1883 41.1069 17.8512 40.7698L14.1504 37.069L17.8512 33.3681C18.1883 33.0311 18.1883 32.4862 17.8512 32.1492Z" fill="white"/>
</svg>
