<svg width="50" height="50" viewBox="0 0 50 50" fill="none" xmlns="http://www.w3.org/2000/svg">
<g clip-path="url(#clip0)">
<path d="M35.8339 30.0001H14.1673C13.7073 30.0001 13.334 30.3726 13.334 30.8334V49.1667C13.334 49.6276 13.7073 50 14.1673 50H35.834C36.2948 50 36.6673 49.6276 36.6673 49.1667V30.8334C36.6673 30.3726 36.2947 30.0001 35.8339 30.0001ZM35.0006 48.3334H15.0006V31.6668H35.0006V48.3334Z" fill="white"/>
<path d="M35.8339 30.0001H14.1673C13.7073 30.0001 13.334 30.3726 13.334 30.8334V49.1667C13.334 49.6276 13.7073 50 14.1673 50H35.834C36.2948 50 36.6673 49.6276 36.6673 49.1667V30.8334C36.6673 30.3726 36.2947 30.0001 35.8339 30.0001ZM35.0006 48.3334H15.0006V31.6668H35.0006V48.3334Z" fill="white"/>
<path d="M14.1667 30.0001H0.833301C0.37334 30.0001 0 30.3726 0 30.8334V49.1667C0 49.6277 0.37334 50.0001 0.833301 50.0001H14.1666C14.6266 50.0001 14.9999 49.6277 14.9999 49.1668V30.8334C15 30.3726 14.6267 30.0001 14.1667 30.0001ZM13.3333 48.3334H1.6667V31.6668H13.3334V48.3334H13.3333Z" fill="white"/>
<path d="M49.1667 30.0001H35.8333C35.3725 30.0001 35 30.3726 35 30.8334V49.1667C35 49.6276 35.3725 50 35.8333 50H49.1666C49.6274 50 49.9999 49.6276 49.9999 49.1667V30.8334C50 30.3726 49.6275 30.0001 49.1667 30.0001ZM48.3333 48.3334H36.6667V31.6668H48.3334V48.3334H48.3333Z" fill="white"/>
<path d="M32.5003 36.6667H17.5003C17.0403 36.6667 16.667 37.0392 16.667 37.5V45.8333C16.667 46.2942 17.0403 46.6666 17.5003 46.6666H32.5003C32.9611 46.6666 33.3336 46.2942 33.3336 45.8333V37.5C33.3336 37.0392 32.9611 36.6667 32.5003 36.6667ZM31.667 45H18.3336V38.3333H31.6669V45H31.667Z" fill="white"/>
<path d="M27.4997 33.3333H25.833V34.9999H27.4997V33.3333Z" fill="white"/>
<path d="M24.1667 33.3333H22.5V34.9999H24.1667V33.3333Z" fill="white"/>
<path d="M20.8337 33.3333H19.167V34.9999H20.8337V33.3333Z" fill="white"/>
<path d="M30.8337 33.3333H29.167V34.9999H30.8337V33.3333Z" fill="white"/>
<path d="M14.1663 36.6667H0.833008V38.3334H14.1663V36.6667Z" fill="white"/>
<path d="M9.16631 33.3333H5.83301V34.9999H9.16631V33.3333Z" fill="white"/>
<path d="M9.16631 39.9999H5.83301V41.6666H9.16631V39.9999Z" fill="white"/>
<path d="M49.1663 36.6667H35.833V38.3334H49.1663V36.6667Z" fill="white"/>
<path d="M43.3337 37.5H41.667V49.1667H43.3337V37.5Z" fill="white"/>
<path d="M44.1673 33.3333H40.834V34.9999H44.1673V33.3333Z" fill="white"/>
<path d="M39.9997 41.6667H38.333V44.1667H39.9997V41.6667Z" fill="white"/>
<path d="M46.6667 41.6667H45V44.1667H46.6667V41.6667Z" fill="white"/>
<path d="M35.5887 13.5775L32.4995 10.4884V0.833301C32.4995 0.37334 32.127 0 31.6662 0H18.3328C17.8728 0 17.4995 0.37334 17.4995 0.833301V10.4883L14.4103 13.5774C14.172 13.8157 14.1004 14.1741 14.2295 14.4857C14.3587 14.7966 14.6628 14.9999 14.9995 14.9999H34.9995C35.3361 14.9999 35.6412 14.7966 35.7695 14.4857C35.8986 14.1741 35.827 13.8158 35.5887 13.5775ZM17.0111 13.3333L18.922 11.4225C19.0786 11.2666 19.1661 11.0541 19.1661 10.8333V1.6667H30.8328V10.8334C30.8328 11.0542 30.9203 11.2667 31.0769 11.4226L32.9878 13.3334H17.0111V13.3333Z" fill="white"/>
<path d="M45.0003 18.3333C43.1619 18.3333 41.667 19.8283 41.667 21.6666V22.4999H43.3337V21.6666C43.3337 20.7474 44.0812 19.9999 45.0004 19.9999C45.9195 19.9999 46.6671 20.7473 46.6671 21.6666V30.8333H48.3338V21.6666C48.3336 19.8283 46.8387 18.3333 45.0003 18.3333Z" fill="white"/>
<path d="M47.5 26.6667H45V28.3335H47.5V26.6667Z" fill="white"/>
<path d="M24.1666 25H15.8333C15.3733 25 15 25.3725 15 25.8333V30.8333C15 31.2941 15.3733 31.6666 15.8333 31.6666H24.1666C24.6266 31.6666 24.9999 31.2941 24.9999 30.8333V25.8333C24.9999 25.3725 24.6266 25 24.1666 25ZM23.3332 30H16.6665V26.6667H23.3332V30Z" fill="white"/>
<path d="M15.833 26.6667H13.333V28.3335H15.833V26.6667Z" fill="white"/>
<path d="M26.667 26.6667H24.167V28.3335H26.667V26.6667Z" fill="white"/>
<path d="M14.1667 0H0.833301C0.37334 0 0 0.37334 0 0.833301V10.8333C0 11.2933 0.37334 11.6666 0.833301 11.6666H14.1666C14.6266 11.6666 14.9999 11.2933 14.9999 10.8333V0.833301C15 0.37334 14.6267 0 14.1667 0ZM13.3333 10H1.6667V1.6667H13.3334V10H13.3333Z" fill="white"/>
<path d="M11.6667 5.00012H10V8.33342H11.6667V5.00012Z" fill="white"/>
<path d="M49.1667 0H35.8333C35.3725 0 35 0.37334 35 0.833301V10.8333C35 11.2933 35.3725 11.6666 35.8333 11.6666H49.1666C49.6274 11.6666 49.9999 11.2933 49.9999 10.8333V0.833301C50 0.37334 49.6275 0 49.1667 0ZM48.3333 10H36.6667V1.6667H48.3334V10H48.3333Z" fill="white"/>
<path d="M39.9997 5.00012H38.333V8.33342H39.9997V5.00012Z" fill="white"/>
<path d="M15 16.6667H0V18.3334H15V16.6667Z" fill="white"/>
<path d="M3.33271 14.9999H1.66602V22.4999H3.33271V14.9999Z" fill="white"/>
<path d="M2.5 21.6667C1.12168 21.6667 0 22.7884 0 24.1667C0 25.5451 1.12168 26.6667 2.5 26.6667C3.87832 26.6667 5 25.5451 5 24.1667C5 22.7884 3.87832 21.6667 2.5 21.6667ZM2.5 25C2.04082 25 1.6667 24.6259 1.6667 24.1667C1.6667 23.7076 2.04082 23.3334 2.5 23.3334C2.95918 23.3334 3.3333 23.7076 3.3333 24.1667C3.3333 24.6259 2.95918 25 2.5 25Z" fill="white"/>
<path d="M6.6667 14.9999H5V22.4999H6.6667V14.9999Z" fill="white"/>
<path d="M5.83399 21.6667C4.45566 21.6667 3.33398 22.7884 3.33398 24.1667C3.33398 25.5451 4.45566 26.6667 5.83399 26.6667C7.21231 26.6667 8.33399 25.5451 8.33399 24.1667C8.33399 22.7884 7.21231 21.6667 5.83399 21.6667ZM5.83399 25C5.37481 25 5.00068 24.6259 5.00068 24.1667C5.00068 23.7076 5.37481 23.3334 5.83399 23.3334C6.29317 23.3334 6.66729 23.7076 6.66729 24.1667C6.66738 24.6259 6.29317 25 5.83399 25Z" fill="white"/>
<path d="M9.99971 14.9999H8.33301V22.4999H9.99971V14.9999Z" fill="white"/>
<path d="M9.16699 21.6667C7.78867 21.6667 6.66699 22.7884 6.66699 24.1667C6.66699 25.5451 7.78867 26.6667 9.16699 26.6667C10.5453 26.6667 11.667 25.5451 11.667 24.1667C11.667 22.7884 10.5453 21.6667 9.16699 21.6667ZM9.16699 25C8.70781 25 8.33369 24.6259 8.33369 24.1667C8.33369 23.7076 8.70781 23.3334 9.16699 23.3334C9.62617 23.3334 10.0003 23.7076 10.0003 24.1667C10.0003 24.6259 9.62617 25 9.16699 25Z" fill="white"/>
</g>
<defs>
<clipPath id="clip0">
<rect width="50" height="50" fill="white"/>
</clipPath>
</defs>
</svg>
