<svg width="50" height="50" viewBox="0 0 50 50" fill="none" xmlns="http://www.w3.org/2000/svg">
<path d="M2.26826 21.8497H6.46255C6.71063 22.7443 7.06798 23.6048 7.52752 24.4114L4.55885 27.3789C4.41709 27.5206 4.33735 27.7129 4.33735 27.9137C4.33735 28.1146 4.41709 28.3068 4.55885 28.4486L7.76615 31.6568C8.06148 31.9515 8.53991 31.9515 8.83525 31.6568L11.8042 28.6875C12.6108 29.1467 13.4705 29.5044 14.365 29.7522V33.9465C14.365 34.3641 14.7035 34.7025 15.1211 34.7025H19.6574C20.075 34.7025 20.4134 34.3641 20.4134 33.9465V29.7522C21.308 29.5044 22.1677 29.1467 22.9742 28.6875L25.9432 31.6568C26.2433 31.9403 26.7125 31.9403 27.0123 31.6568L30.2202 28.4486C30.362 28.3068 30.4417 28.1146 30.4417 27.9137C30.4417 27.7129 30.362 27.5206 30.2202 27.3789L27.2509 24.4114C27.7105 23.6048 28.0678 22.7443 28.3159 21.8497H32.5102C32.9278 21.8497 33.2662 21.5112 33.2662 21.0936V16.5574C33.2662 16.1401 32.9278 15.8013 32.5102 15.8013H28.3159C28.0678 14.907 27.7105 14.0464 27.2509 13.2399L30.2196 10.2724C30.3614 10.1306 30.4411 9.93839 30.4411 9.73756C30.4411 9.53674 30.3614 9.34448 30.2196 9.20272L27.0123 5.99453C26.717 5.6995 26.2385 5.6995 25.9432 5.99453L22.9742 8.9638C22.1677 8.50485 21.3077 8.1472 20.4134 7.89913V3.70453C20.4134 3.28723 20.075 2.94849 19.6574 2.94849H15.1211C14.7035 2.94849 14.365 3.28723 14.365 3.70453V7.89913C13.4708 8.1472 12.6108 8.50485 11.8042 8.9638L8.83525 5.99453C8.53519 5.71102 8.06591 5.71102 7.76615 5.99453L4.55826 9.20272C4.4165 9.34448 4.33676 9.53674 4.33676 9.73756C4.33676 9.93839 4.4165 10.1306 4.55826 10.2724L7.52752 13.2399C7.06798 14.0464 6.71063 14.907 6.46255 15.8013H2.26826C1.85066 15.8013 1.51221 16.1401 1.51221 16.5574V21.0936C1.51221 21.5112 1.85066 21.8497 2.26826 21.8497ZM3.0243 17.3134H7.0541C7.40939 17.3134 7.71683 17.0662 7.79273 16.7192C8.0408 15.5869 8.48941 14.5078 9.11729 13.5332C9.30896 13.2343 9.26643 12.8418 9.0151 12.5905L6.16191 9.73727L8.3007 7.59818L11.1533 10.4514C11.4046 10.7033 11.7974 10.7458 12.0969 10.5539C13.0718 9.92628 14.1506 9.47767 15.2829 9.2293C15.6296 9.1531 15.8771 8.84566 15.8771 8.49038V4.46058H18.9013V8.49038C18.9013 8.84566 19.1488 9.1531 19.4955 9.2293C20.6278 9.47767 21.7067 9.92628 22.6816 10.5539C22.981 10.7458 23.3738 10.7033 23.6251 10.4514L26.4778 7.59818L28.616 9.73727L25.7633 12.5896C25.5114 12.8412 25.4692 13.234 25.6612 13.5332C26.289 14.5083 26.7371 15.5872 26.9848 16.7198C27.061 17.0668 27.3685 17.3143 27.7235 17.3143H31.7541V20.3385H27.7235C27.3685 20.3385 27.061 20.5857 26.9848 20.9327C26.7371 22.065 26.2887 23.1438 25.6612 24.1178C25.4695 24.417 25.512 24.8095 25.7633 25.0608L28.6165 27.9134L26.4778 30.0531L23.6251 27.1996C23.3738 26.948 22.981 26.9055 22.6816 27.0974C21.7073 27.7253 20.6287 28.1739 19.4964 28.422C19.1491 28.4976 18.9013 28.8053 18.9013 29.1606V33.1904H15.8771V29.1606C15.8771 28.8053 15.6293 28.4976 15.282 28.422C14.1497 28.1739 13.0712 27.7253 12.0969 27.0974C11.7974 26.9055 11.4046 26.948 11.1533 27.1996L8.3007 30.0531L6.1625 27.914L9.0151 25.0614C9.26702 24.8101 9.30925 24.4173 9.11729 24.1178C8.48941 23.1429 8.0408 22.0638 7.79273 20.9312C7.71653 20.5842 7.40939 20.3376 7.0541 20.3376H3.0243V17.3134Z" fill="white"/>
<path d="M17.3887 24.8739C20.7292 24.8739 23.4371 22.1663 23.4371 18.8255C23.4371 15.485 20.7292 12.7771 17.3887 12.7771C14.0482 12.7771 11.3403 15.485 11.3403 18.8255C11.3439 22.1642 14.05 24.8703 17.3887 24.8739ZM17.3887 14.2892C19.8937 14.2892 21.925 16.3205 21.925 18.8255C21.925 21.3308 19.8937 23.3618 17.3887 23.3618C14.8837 23.3618 12.8524 21.3308 12.8524 18.8255C12.8551 16.3211 14.8843 14.2919 17.3887 14.2892Z" fill="white"/>
<path d="M17.3893 27.142C21.9823 27.142 25.7058 23.4187 25.7058 18.8254C25.7058 14.2324 21.9823 10.5089 17.3893 10.5089C12.7963 10.5089 9.07275 14.2324 9.07275 18.8254C9.07837 23.4164 12.7984 27.1367 17.3893 27.142ZM17.3893 12.021C21.1474 12.021 24.1937 15.0673 24.1937 18.8254C24.1937 22.5835 21.1474 25.6299 17.3893 25.6299C13.6312 25.6299 10.5849 22.5835 10.5849 18.8254C10.589 15.0694 13.633 12.0251 17.3893 12.021Z" fill="white"/>
<path d="M44.607 37.7267V31.6783C44.607 31.261 44.2685 30.9222 43.8509 30.9222H42.3388V24.8738C42.3388 24.4565 42.0004 24.1178 41.5828 24.1178H34.7783C34.3607 24.1178 34.0223 24.4565 34.0223 24.8738V30.9222H30.242C29.8244 30.9222 29.486 31.261 29.486 31.6783V37.7267H5.29245C3.20564 37.7293 1.51487 39.4201 1.51221 41.5069V43.019C1.51487 45.1061 3.20564 46.7969 5.29245 46.7992H44.607C46.6938 46.7969 48.3846 45.1061 48.3872 43.019V41.5069C48.3846 39.4201 46.6938 37.7293 44.607 37.7267ZM43.0949 37.7267H37.8025V32.4343H43.0949V37.7267ZM35.5344 25.6299H40.8267V30.9222H35.5344V25.6299ZM30.9981 32.4343H36.2904V37.7267H30.9981V32.4343ZM46.8751 43.019C46.8751 44.2718 45.8595 45.2871 44.607 45.2871H5.29245C4.03995 45.2871 3.0243 44.2718 3.0243 43.019V41.5069C3.0243 40.2544 4.03995 39.2388 5.29245 39.2388H44.607C45.8595 39.2388 46.8751 40.2544 46.8751 41.5069V43.019Z" fill="white"/>
<path d="M24.9498 39.9949C23.6973 39.9949 22.6816 41.0105 22.6816 42.263C22.6816 43.5158 23.6973 44.5312 24.9498 44.5312C26.2023 44.5312 27.2179 43.5158 27.2179 42.263C27.2179 41.0105 26.2023 39.9949 24.9498 39.9949ZM24.9498 43.0191C24.5322 43.0191 24.1937 42.6806 24.1937 42.263C24.1937 41.8457 24.5322 41.507 24.9498 41.507C25.3674 41.507 25.7058 41.8457 25.7058 42.263C25.7058 42.6806 25.3674 43.0191 24.9498 43.0191Z" fill="white"/>
<path d="M17.3892 39.9949C16.1367 39.9949 15.1211 41.0105 15.1211 42.263C15.1211 43.5158 16.1367 44.5312 17.3892 44.5312C18.6417 44.5312 19.6574 43.5158 19.6574 42.263C19.6574 41.0105 18.6417 39.9949 17.3892 39.9949ZM17.3892 43.0191C16.9716 43.0191 16.6332 42.6806 16.6332 42.263C16.6332 41.8457 16.9716 41.507 17.3892 41.507C17.8068 41.507 18.1453 41.8457 18.1453 42.263C18.1453 42.6806 17.8068 43.0191 17.3892 43.0191Z" fill="white"/>
<path d="M32.5098 39.9949C31.2573 39.9949 30.2417 41.0105 30.2417 42.263C30.2417 43.5158 31.2573 44.5312 32.5098 44.5312C33.7623 44.5312 34.778 43.5158 34.778 42.263C34.778 41.0105 33.7623 39.9949 32.5098 39.9949ZM32.5098 43.0191C32.0922 43.0191 31.7538 42.6806 31.7538 42.263C31.7538 41.8457 32.0922 41.507 32.5098 41.507C32.9274 41.507 33.2659 41.8457 33.2659 42.263C33.2659 42.6806 32.9274 43.0191 32.5098 43.0191Z" fill="white"/>
<path d="M9.82869 39.9949C8.57619 39.9949 7.56055 41.0105 7.56055 42.263C7.56055 43.5158 8.57619 44.5312 9.82869 44.5312C11.0812 44.5312 12.0968 43.5158 12.0968 42.263C12.0968 41.0105 11.0812 39.9949 9.82869 39.9949ZM9.82869 43.0191C9.41109 43.0191 9.07264 42.6806 9.07264 42.263C9.07264 41.8457 9.41109 41.507 9.82869 41.507C10.2463 41.507 10.5847 41.8457 10.5847 42.263C10.5847 42.6806 10.2463 43.0191 9.82869 43.0191Z" fill="white"/>
<path d="M40.0704 39.9949C38.8179 39.9949 37.8022 41.0105 37.8022 42.263C37.8022 43.5158 38.8179 44.5312 40.0704 44.5312C41.3229 44.5312 42.3385 43.5158 42.3385 42.263C42.3385 41.0105 41.3229 39.9949 40.0704 39.9949ZM40.0704 43.0191C39.6528 43.0191 39.3143 42.6806 39.3143 42.263C39.3143 41.8457 39.6528 41.507 40.0704 41.507C40.488 41.507 40.8264 41.8457 40.8264 42.263C40.8264 42.6806 40.488 43.0191 40.0704 43.0191Z" fill="white"/>
</svg>
