<svg width="50" height="50" viewBox="0 0 50 50" fill="none" xmlns="http://www.w3.org/2000/svg">
<g clip-path="url(#clip0)">
<path d="M49.9079 11.8565C49.7358 11.2165 49.316 10.671 48.7415 10.3402C48.1667 10.0078 47.4832 9.91791 46.842 10.09C46.2017 10.2625 45.6561 10.6819 45.3253 11.2564L44.9087 11.9814C44.5129 11.7539 44.0072 11.8878 43.7757 12.2816L41.6594 15.889L40.9344 15.4724C40.7424 15.3613 40.5137 15.3312 40.2997 15.389C40.0853 15.4472 39.9031 15.5879 39.7928 15.7808C39.567 16.179 39.7046 16.6851 40.1012 16.9138L40.8262 17.3304L33.7441 29.6033L31.9943 34.2778L31.1611 35.8355C30.6733 36.6842 30.7254 37.7391 31.2945 38.5353L29.4198 40.8347L28.895 39.5186C28.6583 38.9319 28.1103 38.53 27.4801 38.4808C26.8495 38.4311 26.2453 38.7428 25.9203 39.2851L25.6204 39.7932L25.3373 36.4604C25.2722 35.672 24.6615 35.0381 23.8764 34.9429C23.0908 34.8482 22.3471 35.3189 22.0961 36.0691L20.0464 42.2179C19.9032 42.6528 20.1376 43.1215 20.5713 43.2679C20.6526 43.3058 20.7401 43.3286 20.8296 43.3343C21.1876 43.3355 21.5066 43.1072 21.6213 42.7679L23.6624 36.6191L23.9541 40.0015C24.0143 40.7232 24.533 41.3233 25.2384 41.4868C25.9439 41.6504 26.6737 41.3396 27.0452 40.7183L27.3535 40.2098L27.8702 41.5182C28.0895 42.0694 28.5854 42.4628 29.1725 42.5503C29.7595 42.6378 30.3486 42.4063 30.7197 41.9429L32.6611 39.4852C32.8759 39.5414 33.0972 39.5694 33.3193 39.5686C34.2123 39.5755 35.0414 39.1052 35.4938 38.3351L36.327 36.9437L39.5015 33.0862L46.6585 20.6631L47.3835 21.0797C47.5767 21.1904 47.7175 21.3731 47.7749 21.5883C47.8326 21.8019 47.8025 22.0297 47.6919 22.2213L44.3591 27.9955C44.2334 28.1851 44.1907 28.4178 44.2411 28.6399C44.2916 28.8616 44.4303 29.0532 44.6256 29.17C44.8176 29.2815 45.0463 29.3116 45.2602 29.2538C45.4746 29.1956 45.6569 29.0549 45.7672 28.862L49.0999 23.0879C49.4323 22.513 49.5222 21.8295 49.3497 21.1884C49.1772 20.548 48.7578 20.0025 48.1833 19.6717L47.4584 19.2551L49.5413 15.6473C49.7688 15.2515 49.6349 14.7462 49.2415 14.5143L49.6581 13.7893C49.9994 13.2055 50.0897 12.5082 49.9079 11.8565ZM46.7667 12.0896C46.877 11.8967 47.0601 11.7556 47.2753 11.6982C47.4893 11.6453 47.7155 11.675 47.9083 11.7816C48.1016 11.8919 48.2423 12.0749 48.3001 12.2897C48.353 12.5037 48.3233 12.7299 48.2167 12.9228L47.8001 13.6477L46.3502 12.8145L46.7667 12.0896ZM35.4104 35.3526L34.9938 35.111L33.7607 34.3941L34.9438 31.2282L37.5683 32.7444L35.4104 35.3526ZM32.9109 37.7603C32.559 37.5149 32.4507 37.043 32.6611 36.6687L33.0777 35.9442L34.5272 36.7773L34.1106 37.4938C33.9939 37.6964 33.7978 37.8404 33.5695 37.8913C33.3413 37.9417 33.1025 37.8945 32.9109 37.7603ZM38.5182 31.3783L35.6354 29.7119L42.301 18.1636L45.1838 19.83L38.5182 31.3783ZM46.017 18.3886L43.1341 16.7222L44.8005 13.8394L47.6833 15.5057L46.017 18.3886Z" fill="white"/>
<path d="M13.1478 37.3436L10.1987 40.285L8.43221 38.5186C8.10715 38.1956 7.58234 38.1956 7.25728 38.5186C7.09943 38.6752 7.01074 38.888 7.01074 39.1101C7.01074 39.3322 7.09943 39.5454 7.25728 39.7016L9.02375 41.4681C9.33619 41.7781 9.75848 41.9518 10.1987 41.9514C10.6413 41.9539 11.0673 41.7801 11.3817 41.4681L14.3227 38.5186C14.6059 38.1878 14.5868 37.6951 14.2792 37.3876C13.9712 37.0796 13.4786 37.0605 13.1478 37.3436Z" fill="white"/>
<path d="M3.33252 39.5848C3.33252 43.4965 6.50337 46.667 10.4146 46.667C14.3259 46.667 17.4968 43.4965 17.4968 39.5848C17.4968 39.1247 17.1237 38.7516 16.6636 38.7516C16.2035 38.7516 15.8304 39.1247 15.8304 39.5848C15.8304 42.5759 13.4057 45.0006 10.4146 45.0006C7.42362 45.0006 4.9989 42.5759 4.9989 39.5848C4.9989 36.5938 7.42362 34.1691 10.4146 34.1691C11.5871 34.1658 12.7283 34.5462 13.664 35.2525C14.0322 35.5287 14.5546 35.4539 14.8304 35.0857C15.1066 34.7175 15.0322 34.1955 14.664 33.9193C12.518 32.3099 9.64655 32.0511 7.24746 33.2505C4.84797 34.4502 3.33252 36.9026 3.33252 39.5848Z" fill="white"/>
<path d="M29.9952 6.67383C30.4553 6.67383 30.8284 6.30117 30.8284 5.84064C30.8284 5.38051 30.4553 5.00745 29.9952 5.00745H8.33222C7.87209 5.00745 7.49902 5.38051 7.49902 5.84064V9.1734C7.49902 9.63394 7.87209 10.0066 8.33222 10.0066H29.9952C30.4553 10.0066 30.8284 9.63394 30.8284 9.1734C30.8284 8.71328 30.4553 8.34021 29.9952 8.34021H9.16541V6.67383H29.9952Z" fill="white"/>
<path d="M10.8317 11.673C10.3716 11.673 9.99854 12.046 9.99854 12.5062C9.99854 12.9667 10.3716 13.3394 10.8317 13.3394H27.4956C27.9557 13.3394 28.3287 12.9667 28.3287 12.5062C28.3287 12.046 27.9557 11.673 27.4956 11.673H10.8317Z" fill="white"/>
<path d="M32.4945 17.5054H14.1642C13.7041 17.5054 13.3311 17.8784 13.3311 18.3386C13.3311 18.7991 13.7041 19.1718 14.1642 19.1718H32.4945C32.9546 19.1718 33.3276 18.7991 33.3276 18.3386C33.3276 17.8784 32.9546 17.5054 32.4945 17.5054Z" fill="white"/>
<path d="M24.1627 23.3377C24.1627 22.8776 23.7897 22.5045 23.3295 22.5045H6.66571C6.20558 22.5045 5.83252 22.8776 5.83252 23.3377C5.83252 23.7982 6.20558 24.1709 6.66571 24.1709H23.3295C23.7897 24.1709 24.1627 23.7982 24.1627 23.3377Z" fill="white"/>
<path d="M32.4941 22.5045H26.6618C26.2017 22.5045 25.8286 22.8776 25.8286 23.3377C25.8286 23.7982 26.2017 24.1709 26.6618 24.1709H32.4941C32.9543 24.1709 33.3273 23.7982 33.3273 23.3377C33.3273 22.8776 32.9543 22.5045 32.4941 22.5045Z" fill="white"/>
<path d="M14.9976 28.3369C15.4578 28.3369 15.8308 27.9643 15.8308 27.5037C15.8308 27.0436 15.4578 26.6705 14.9976 26.6705H6.66571C6.20558 26.6705 5.83252 27.0436 5.83252 27.5037C5.83252 27.9643 6.20558 28.3369 6.66571 28.3369H14.9976Z" fill="white"/>
<path d="M18.3303 28.3369H24.1626C24.6227 28.3369 24.9958 27.9643 24.9958 27.5037C24.9958 27.0436 24.6227 26.6705 24.1626 26.6705H18.3303C17.8701 26.6705 17.4971 27.0436 17.4971 27.5037C17.4971 27.9643 17.8701 28.3369 18.3303 28.3369Z" fill="white"/>
<path d="M37.4936 38.336C37.0335 38.336 36.6604 38.709 36.6604 39.1692V47.5011C36.6604 47.9616 36.2874 48.3343 35.8272 48.3343H2.49957C2.03945 48.3343 1.66638 47.9616 1.66638 47.5011V2.50873C1.66638 2.0486 2.03945 1.67554 2.49957 1.67554H35.8272C36.2874 1.67554 36.6604 2.0486 36.6604 2.50873V18.1563C36.6604 18.6164 37.0335 18.9895 37.4936 18.9895C37.9537 18.9895 38.3268 18.6164 38.3268 18.1563V2.50873C38.3268 1.12835 37.2076 0.00915527 35.8272 0.00915527H2.49957C1.11919 0.00915527 0 1.12835 0 2.50873V47.5011C0 48.8819 1.11919 50.0006 2.49957 50.0006H35.8272C37.2076 50.0006 38.3268 48.8819 38.3268 47.5011V39.1692C38.3268 38.709 37.9537 38.336 37.4936 38.336Z" fill="white"/>
</g>
<defs>
<clipPath id="clip0">
<rect width="50" height="50" fill="white"/>
</clipPath>
</defs>
</svg>
