<svg width="23" height="23" viewBox="0 0 23 23" fill="none" xmlns="http://www.w3.org/2000/svg">
<g clip-path="url(#clip0)">
<path d="M2.47519 6.32888C3.84194 6.32888 4.95038 5.21575 4.95038 3.85369C4.95038 2.49163 3.84194 1.3738 2.47519 1.3738C1.10843 1.3738 0 2.48693 0 3.84899C0 5.21105 1.11313 6.32888 2.47519 6.32888ZM2.47519 2.52451C3.20788 2.52451 3.79967 3.12099 3.79967 3.84899C3.79967 4.57699 3.20319 5.17348 2.47519 5.17348C1.74719 5.17348 1.1507 4.57699 1.1507 3.84899C1.1507 3.12099 1.74719 2.52451 2.47519 2.52451Z" fill="white"/>
<path d="M2.47519 13.9752C3.84194 13.9752 4.95038 12.8621 4.95038 11.5C4.95038 10.1379 3.84194 9.02481 2.47519 9.02481C1.10843 9.02481 0 10.1332 0 11.5C0 12.8668 1.11313 13.9752 2.47519 13.9752ZM2.47519 10.1755C3.20788 10.1755 3.79967 10.772 3.79967 11.5C3.79967 12.228 3.20319 12.8245 2.47519 12.8245C1.74719 12.8245 1.1507 12.2327 1.1507 11.5C1.1507 10.7673 1.74719 10.1755 2.47519 10.1755Z" fill="white"/>
<path d="M2.47519 21.6262C3.84194 21.6262 4.95038 20.5131 4.95038 19.151C4.95038 17.7843 3.83725 16.6758 2.47519 16.6758C1.11313 16.6758 0 17.789 0 19.151C0 20.5131 1.11313 21.6262 2.47519 21.6262ZM2.47519 17.8218C3.20788 17.8218 3.79967 18.4183 3.79967 19.1463C3.79967 19.879 3.20319 20.4708 2.47519 20.4708C1.74719 20.4708 1.1507 19.8743 1.1507 19.1463C1.1507 18.4183 1.74719 17.8218 2.47519 17.8218Z" fill="white"/>
<path d="M8.26227 4.42669H22.423C22.7423 4.42669 23.0007 4.16837 23.0007 3.84899C23.0007 3.52961 22.7423 3.27129 22.423 3.27129H8.26227C7.94289 3.27129 7.68457 3.52961 7.68457 3.84899C7.68457 4.16837 7.94289 4.42669 8.26227 4.42669Z" fill="white"/>
<path d="M8.26227 12.0777H22.423C22.7423 12.0777 23.0007 11.8194 23.0007 11.5C23.0007 11.1806 22.7423 10.9223 22.423 10.9223H8.26227C7.94289 10.9223 7.68457 11.1806 7.68457 11.5C7.68457 11.8194 7.94289 12.0777 8.26227 12.0777Z" fill="white"/>
<path d="M8.26227 19.724H22.423C22.7423 19.724 23.0007 19.4657 23.0007 19.1463C23.0007 18.827 22.7423 18.5686 22.423 18.5686H8.26227C7.94289 18.5686 7.68457 18.827 7.68457 19.1463C7.68457 19.4657 7.94289 19.724 8.26227 19.724Z" fill="white"/>
</g>
<defs>
<clipPath id="clip0">
<rect width="23" height="23" fill="white"/>
</clipPath>
</defs>
</svg>
