<svg width="23" height="23" viewBox="0 0 23 23" fill="none" xmlns="http://www.w3.org/2000/svg">
<g clip-path="url(#clip0)">
<path d="M5.36738 14.7324C4.09892 14.7324 3.06738 15.7361 3.06738 16.9703C3.06738 18.2044 4.09892 19.2081 5.36738 19.2081C6.63584 19.2081 7.66738 18.2044 7.66738 16.9703C7.66738 15.7361 6.63579 14.7324 5.36738 14.7324ZM5.36738 18.4621C4.52173 18.4621 3.83406 17.793 3.83406 16.9703C3.83406 16.1475 4.52177 15.4784 5.36738 15.4784C6.21299 15.4784 6.9007 16.1475 6.9007 16.9703C6.9007 17.793 6.21299 18.4621 5.36738 18.4621Z" fill="white"/>
<path d="M18.3996 14.7324C17.1312 14.7324 16.0996 15.7361 16.0996 16.9703C16.0996 18.2044 17.1312 19.2081 18.3996 19.2081C19.6681 19.2081 20.6996 18.2044 20.6996 16.9703C20.6996 15.7361 19.6681 14.7324 18.3996 14.7324ZM18.3996 18.4621C17.554 18.4621 16.8663 17.793 16.8663 16.9703C16.8663 16.1475 17.554 15.4784 18.3996 15.4784C19.2453 15.4784 19.9329 16.1475 19.9329 16.9703C19.9329 17.793 19.2453 18.4621 18.3996 18.4621Z" fill="white"/>
<path d="M22.9397 12.6658L19.4897 7.44418C19.4192 7.33749 19.2977 7.27298 19.1673 7.27298H14.9507C14.7387 7.27298 14.5674 7.44007 14.5674 7.64594V16.9703C14.5674 17.1765 14.7387 17.3432 14.9507 17.3432H16.484V16.5972H15.334V8.01894H18.958L22.234 12.9772V16.5973H20.3173V17.3433H22.6173C22.8293 17.3433 23.0007 17.1766 23.0007 16.9703V12.8676C23.0007 12.7963 22.9796 12.7258 22.9397 12.6658Z" fill="white"/>
<path d="M16.8662 12.1216V9.51081H19.9329V8.76485H16.4829C16.2709 8.76485 16.0996 8.93194 16.0996 9.13781V12.4946C16.0996 12.7008 16.2709 12.8675 16.4829 12.8675H22.2329V12.1216H16.8662V12.1216Z" fill="white"/>
<path d="M14.95 4.66218H0.383318C0.171736 4.66218 0 4.82927 0 5.03514V16.9703C0 17.1765 0.171736 17.3432 0.383318 17.3432H3.45V16.5973H0.766682V5.4081H14.5667V16.5973H7.28332V17.3432H14.95C15.162 17.3432 15.3333 17.1765 15.3333 16.9703V5.03514C15.3333 4.82927 15.162 4.66218 14.95 4.66218Z" fill="white"/>
<path d="M2.68281 15.1054H0.382812V15.8514H2.68281V15.1054Z" fill="white"/>
<path d="M14.5665 15.1054H8.0498V15.8514H14.5665V15.1054Z" fill="white"/>
<path d="M22.6163 15.1054H21.083V15.8514H22.6163V15.1054Z" fill="white"/>
<path d="M14.9499 6.15407H1.5332V6.90003H14.9499V6.15407Z" fill="white"/>
<path d="M5.75008 16.5973H4.9834V17.3432H5.75008V16.5973Z" fill="white"/>
<path d="M18.7833 16.5973H18.0166V17.3432H18.7833V16.5973Z" fill="white"/>
<path d="M6.89988 3.17026H1.5332V3.91622H6.89988V3.17026Z" fill="white"/>
<path d="M0.766682 3.17026H0V3.91622H0.766682V3.17026Z" fill="white"/>
</g>
<defs>
<clipPath id="clip0">
<rect width="23" height="22.3784" fill="white"/>
</clipPath>
</defs>
</svg>
