<svg width="23" height="23" viewBox="0 0 23 23" fill="none" xmlns="http://www.w3.org/2000/svg">
<g clip-path="url(#clip0)">
<path d="M7.75176 17.605C7.74592 17.5762 7.73738 17.5479 7.72615 17.5205C7.71492 17.4936 7.701 17.4675 7.68482 17.4433C7.66865 17.4185 7.64979 17.3956 7.62912 17.375C7.60846 17.3543 7.58555 17.3354 7.56084 17.3193C7.53658 17.3031 7.51053 17.2892 7.48313 17.2779C7.45617 17.2667 7.42787 17.2577 7.39912 17.2523C7.34117 17.2407 7.28143 17.2407 7.22393 17.2523C7.19518 17.2577 7.16687 17.2667 7.13947 17.2779C7.11252 17.2892 7.08646 17.3031 7.06221 17.3193C7.0375 17.3354 7.01459 17.3543 6.99393 17.375C6.97326 17.3956 6.95439 17.4185 6.93822 17.4433C6.9216 17.4675 6.90813 17.4936 6.89689 17.5205C6.88566 17.5479 6.87668 17.5762 6.87129 17.605C6.86545 17.6337 6.8623 17.6634 6.8623 17.6926C6.8623 17.7218 6.86545 17.7514 6.87129 17.7802C6.87668 17.8089 6.88566 17.8372 6.89689 17.8642C6.90813 17.8916 6.9216 17.9176 6.93822 17.9419C6.95439 17.9666 6.97326 17.9895 6.99393 18.0102C7.01459 18.0308 7.0375 18.0497 7.06221 18.0659C7.08646 18.0821 7.11252 18.096 7.13947 18.1072C7.16687 18.1185 7.19518 18.1275 7.22393 18.1328C7.25268 18.1387 7.28232 18.1418 7.31152 18.1418C7.34072 18.1418 7.37037 18.1387 7.39912 18.1328C7.42787 18.1275 7.45617 18.1185 7.48313 18.1072C7.51053 18.096 7.53658 18.082 7.56084 18.0659C7.58555 18.0497 7.60846 18.0308 7.62912 18.0102C7.64979 17.9895 7.66865 17.9666 7.68482 17.9419C7.701 17.9176 7.71492 17.8916 7.72615 17.8642C7.73738 17.8372 7.74592 17.8089 7.75176 17.7802C7.7576 17.7514 7.76074 17.7218 7.76074 17.6926C7.76074 17.6634 7.7576 17.6337 7.75176 17.605Z" fill="white"/>
<path d="M20.6638 17.7433C20.662 17.7388 20.6602 17.7344 20.6583 17.73C20.2449 16.7625 19.2752 16.4049 18.1276 16.7969L14.998 17.6623C14.817 17.1144 14.3657 16.6481 13.7275 16.4113C13.7236 16.4098 13.7196 16.4084 13.7156 16.407L10.2755 15.2394C9.98914 14.8693 9.09223 13.9223 7.41292 13.9223C6.23934 13.9223 5.20115 14.7274 4.60719 15.6049H0.449219C0.201115 15.6049 0 15.806 0 16.0541V21.7178C0 21.9659 0.201115 22.167 0.449219 22.167H3.12014C3.36824 22.167 3.56936 21.9659 3.56936 21.7178V21.3299H4.82191C5.07002 21.3299 5.27113 21.1288 5.27113 20.8807V20.7514C6.00129 20.8151 6.24145 20.9536 6.91204 21.3403C7.42774 21.6377 8.20718 22.0871 9.61081 22.7182C9.61733 22.7211 9.62393 22.7239 9.63053 22.7265C9.89993 22.8325 10.4265 22.999 11.0758 22.999C11.5277 22.999 12.0392 22.9183 12.5641 22.6803L19.4817 20.2035C19.494 20.1991 19.5061 20.1941 19.518 20.1887C20.1791 19.8845 21.1643 19.0273 20.6638 17.7433ZM2.67092 21.2685H0.898438V16.5033H2.67092V21.2685ZM4.3727 20.4314H3.56936V16.5033H4.3727V20.4314ZM19.159 19.3647L12.2445 21.8404C12.2385 21.8425 12.2303 21.8457 12.2243 21.8482C12.2182 21.8506 12.2121 21.8532 12.2062 21.856C11.2432 22.2986 10.3278 22.0336 9.96906 21.8941C8.61323 21.284 7.88959 20.8668 7.36085 20.5619C6.62575 20.138 6.27154 19.9337 5.27113 19.8511V16.233C5.69695 15.5351 6.5227 14.8207 7.41296 14.8207C8.93968 14.8207 9.5866 15.8137 9.61203 15.8537C9.66687 15.943 9.75119 16.0102 9.85034 16.0439L13.4205 17.2556C13.9907 17.4696 14.292 17.9579 14.1535 18.4448C14.0896 18.6697 13.9419 18.8562 13.7377 18.97C13.5352 19.0828 13.3012 19.1107 13.0781 19.049L9.05342 17.7736C8.81677 17.6986 8.5644 17.8296 8.48947 18.0661C8.4145 18.3026 8.54549 18.5551 8.782 18.6301L12.8137 19.9077C12.818 19.909 12.8222 19.9103 12.8265 19.9115C12.9875 19.9573 13.1514 19.98 13.3143 19.98C13.6125 19.98 13.9074 19.904 14.175 19.7549C14.5889 19.5243 14.8881 19.1463 15.0177 18.6906C15.028 18.6542 15.0372 18.6178 15.0451 18.5814L18.418 17.647C18.9051 17.4806 19.5446 17.4207 19.8293 18.0764C20.124 18.8462 19.3581 19.2697 19.159 19.3647Z" fill="white"/>
<path d="M16.1292 5.90917C16.1233 5.88042 16.1148 5.85212 16.1031 5.82472C16.0919 5.79777 16.0784 5.77171 16.0618 5.74745C16.0456 5.72275 16.0267 5.69984 16.0061 5.67917C15.9854 5.65851 15.9625 5.63964 15.9378 5.62347C15.9135 5.6073 15.8875 5.59337 15.8605 5.58214C15.8331 5.57091 15.8048 5.56193 15.7765 5.55654C15.7186 5.54486 15.6588 5.54486 15.6009 5.55654C15.5721 5.56193 15.5438 5.57091 15.5169 5.58214C15.4895 5.59337 15.4634 5.6073 15.4392 5.62347C15.4145 5.63964 15.3915 5.65851 15.3709 5.67917C15.3502 5.69984 15.3313 5.72275 15.3152 5.74745C15.299 5.77171 15.2851 5.79777 15.2738 5.82472C15.2626 5.85212 15.2536 5.88042 15.2482 5.90917C15.2424 5.93792 15.2393 5.96757 15.2393 5.99677C15.2393 6.02597 15.2424 6.05562 15.2482 6.08437C15.2536 6.11312 15.2626 6.14142 15.2738 6.16837C15.2851 6.19577 15.299 6.22183 15.3152 6.24609C15.3313 6.27079 15.3502 6.2937 15.3709 6.31437C15.3915 6.33503 15.4145 6.3539 15.4392 6.37007C15.4634 6.38624 15.4895 6.40017 15.5169 6.4114C15.5438 6.42263 15.5721 6.43116 15.6009 6.437C15.6296 6.44284 15.6593 6.44599 15.6885 6.44599C15.7177 6.44599 15.7473 6.44284 15.7765 6.437C15.8048 6.43116 15.8331 6.42263 15.8605 6.4114C15.8875 6.40017 15.9135 6.38624 15.9378 6.37007C15.9625 6.3539 15.9854 6.33503 16.0061 6.31437C16.0267 6.2937 16.0456 6.27079 16.0618 6.24609C16.0784 6.22183 16.0919 6.19577 16.1031 6.16837C16.1148 6.14142 16.1233 6.11312 16.1292 6.08437C16.135 6.05562 16.1377 6.02597 16.1377 5.99677C16.1377 5.96757 16.135 5.93792 16.1292 5.90917Z" fill="white"/>
<path d="M22.551 1.52244H19.8801C19.632 1.52244 19.4309 1.72356 19.4309 1.97166V2.35952H18.1783C17.9302 2.35952 17.7291 2.56063 17.7291 2.80873V2.93802C16.9989 2.87427 16.7588 2.73583 16.0882 2.34914C15.5725 2.05176 14.7931 1.60231 13.3894 0.971204C13.3829 0.968239 13.3763 0.965499 13.3696 0.962894C12.9127 0.783116 11.7153 0.429401 10.4363 1.00903L8.62864 1.65626L7.10493 0.132603C6.92951 -0.0428174 6.64507 -0.0428174 6.46965 0.132603L1.46723 5.13497C1.30543 5.29682 1.27439 5.57745 1.46723 5.7703L10.0153 14.3183C10.1521 14.4552 10.4724 14.4966 10.6506 14.3183L15.2176 9.75141C15.3363 9.76165 15.4595 9.76718 15.5873 9.76718C16.7609 9.76718 17.799 8.96209 18.3929 8.08458H22.551C22.7991 8.08458 23.0002 7.88347 23.0002 7.63537V1.97166C23.0002 1.72356 22.7991 1.52244 22.551 1.52244ZM6.78724 1.08553L7.8111 2.10939C7.50676 2.29761 7.15488 2.39833 6.78724 2.39833C6.41956 2.39833 6.06773 2.29766 5.76338 2.10939L6.78724 1.08553ZM3.44407 6.47652L2.42021 5.45261L3.44407 4.42875C3.63229 4.7331 3.733 5.08497 3.733 5.45261C3.733 5.82025 3.63233 6.17212 3.44407 6.47652ZM10.333 13.3654L9.30929 12.3417C9.93429 11.956 10.7316 11.956 11.3566 12.3417L10.333 13.3654ZM12.0038 11.6946C11.0112 10.9745 9.65479 10.9745 8.6621 11.6946L4.09126 7.12366C4.44205 6.6412 4.63144 6.06166 4.63144 5.45261C4.63144 4.84352 4.4421 4.26402 4.09126 3.78156L5.11624 2.75662C5.5987 3.10742 6.17819 3.29681 6.78729 3.29681C7.39638 3.29681 7.97588 3.10742 8.45834 2.75662L9.42995 3.72824C9.2203 3.75919 9.01586 3.82828 8.82521 3.93452C8.50321 4.11394 8.25057 4.38262 8.09326 4.70767C7.58654 4.80151 7.11742 5.04683 6.74942 5.41479C5.75103 6.41322 5.75103 8.03773 6.74946 9.03616C7.24864 9.53534 7.90436 9.78497 8.56013 9.78497C9.21585 9.78497 9.87162 9.53538 10.3708 9.03616C10.6956 8.71138 10.9232 8.3122 11.0371 7.87718L12.5539 8.39194C12.3831 9.18292 12.558 10.0151 13.0297 10.6687L12.0038 11.6946ZM9.27268 7.27815C9.27663 7.27958 9.28059 7.28102 9.28458 7.28237L10.1828 7.58725C10.115 7.8934 9.96151 8.17488 9.73556 8.40088C9.08742 9.04892 8.03284 9.04901 7.38479 8.40088C6.73666 7.75279 6.73666 6.69825 7.38479 6.05012C7.54112 5.8937 7.72562 5.77147 7.92664 5.68859C8.00957 6.37868 8.50645 6.99379 9.27268 7.27815ZM13.677 10.0213C13.5036 9.73879 13.4055 9.41629 13.39 9.08715C13.6052 9.24271 13.8681 9.39513 14.1822 9.51611L13.677 10.0213ZM17.729 7.45626C17.3033 8.15426 16.4775 8.86865 15.5873 8.86865C15.4207 8.86865 15.2646 8.85679 15.1186 8.83568C15.1181 8.83559 15.1175 8.8355 15.1169 8.83541C14.1468 8.69449 13.6249 8.14312 13.4529 7.9248C13.4437 7.91132 13.4047 7.86024 13.3989 7.85175C13.3466 7.75823 13.2608 7.68303 13.1513 7.64588L9.57968 6.43366C9.00971 6.21974 8.70842 5.73167 8.84651 5.24489C8.8466 5.24458 8.84669 5.24426 8.84678 5.24395C8.84691 5.24359 8.847 5.24319 8.84709 5.24283C8.91128 5.01867 9.05872 4.83273 9.26248 4.71922C9.4649 4.60642 9.6989 4.57843 9.92207 4.64029L13.9468 5.91567C14.1833 5.99073 14.4358 5.85965 14.5107 5.62314C14.5856 5.38662 14.4547 5.13416 14.2182 5.05919L11.0173 4.04485L10.9893 4.01691C10.9891 4.01664 10.9888 4.01632 10.9885 4.01605L9.3313 2.35889L10.7557 1.84884C10.7605 1.84709 10.7664 1.84489 10.7712 1.84296C10.7724 1.84246 10.7747 1.84157 10.7759 1.84107C10.782 1.8386 10.788 1.836 10.794 1.83326C11.757 1.39068 12.6723 1.65559 13.0311 1.79512C14.3869 2.4052 15.1106 2.82248 15.6394 3.12736C16.3745 3.55129 16.7287 3.75555 17.729 3.83816V7.45626ZM19.4309 7.18606H18.6275V3.25795H19.4309V7.18606ZM22.1018 7.18606H20.3293V2.42088H22.1018V7.18606Z" fill="white"/>
</g>
<defs>
<clipPath id="clip0">
<rect width="23" height="23" fill="white"/>
</clipPath>
</defs>
</svg>
