<svg width="23" height="23" viewBox="0 0 23 23" fill="none" xmlns="http://www.w3.org/2000/svg">
<path d="M20.9339 19.9811L18.5208 16.8788C19.3027 16.6452 19.9782 16.1452 20.4298 15.4655C20.9981 14.4833 20.7411 13.2845 20.4925 12.1266C20.3422 11.5317 20.2522 10.9232 20.224 10.3103C20.2521 9.69693 20.342 9.08788 20.4925 8.49255C20.7396 7.33383 20.9981 6.13584 20.4298 5.15517C19.8414 4.13841 18.6565 3.76209 17.5104 3.39884C16.9399 3.24166 16.3874 3.02529 15.862 2.75326C15.3851 2.44395 14.9424 2.08507 14.5411 1.68257C13.6908 0.893431 12.7268 0 11.4999 0C10.273 0 9.30895 0.893431 8.45835 1.68217C8.05718 2.08477 7.61453 2.4438 7.13783 2.75326C6.6124 3.02475 6.06005 3.24057 5.48976 3.39726C4.34373 3.7605 3.15883 4.13683 2.57035 5.15359C2.00209 6.13585 2.25905 7.33462 2.50769 8.49255C2.65803 9.08792 2.74785 9.69693 2.77576 10.3103C2.7477 10.9238 2.65779 11.5328 2.50729 12.1281C2.26024 13.2869 2.00169 14.4848 2.56995 15.4655C3.02222 16.1454 3.69839 16.6453 4.48093 16.8784L2.06593 19.9807C1.9315 20.1536 1.96268 20.4027 2.13563 20.5371C2.2187 20.6017 2.32399 20.6306 2.42838 20.6175L5.26373 20.2634L5.96364 22.7125C6.00463 22.8561 6.12281 22.9644 6.26938 22.9929C6.29422 22.9976 6.31945 23 6.34473 23C6.46716 23.0001 6.58281 22.9436 6.658 22.8469L9.19038 19.5897C9.81356 20.1963 10.6321 20.5618 11.4999 20.6207C12.3677 20.5618 13.1862 20.1963 13.8094 19.5897L16.3418 22.8457C16.4167 22.9428 16.5324 22.9998 16.6551 23C16.6804 23 16.7056 22.9976 16.7304 22.9929C16.877 22.9644 16.9952 22.8561 17.0362 22.7125L17.7361 20.2638L20.5714 20.6179C20.7887 20.6452 20.987 20.4911 21.0143 20.2738C21.0274 20.1694 20.9985 20.0641 20.9339 19.9811ZM6.51128 21.7433L5.93271 19.7185C5.87893 19.5307 5.69631 19.4101 5.50245 19.4342L3.28176 19.7118L5.27205 17.1532L5.49135 17.2234C6.06109 17.3802 6.61289 17.596 7.13783 17.8674C7.61468 18.1767 8.05743 18.5356 8.45874 18.9381L8.59516 19.0642L6.51128 21.7433ZM11.4999 19.8276C10.5839 19.8276 9.81336 19.1138 8.99726 18.3572C8.55327 17.9136 8.06284 17.5192 7.53438 17.1806C6.95943 16.8796 6.35419 16.6404 5.72888 16.4668C4.68079 16.1341 3.6906 15.82 3.25598 15.069C2.84119 14.3516 3.05533 13.3519 3.28255 12.2931C3.44608 11.6438 3.54205 10.9794 3.56886 10.3103C3.54219 9.64131 3.44638 8.97689 3.28295 8.32759C3.05573 7.26919 2.84159 6.26948 3.25638 5.55172C3.69259 4.80066 4.68119 4.48659 5.72928 4.15388C6.35449 3.98029 6.95953 3.74102 7.53438 3.44009C8.06269 3.10153 8.55302 2.70706 8.99686 2.26352C9.81336 1.5069 10.5839 0.793103 11.4999 0.793103C12.4159 0.793103 13.1864 1.5069 14.0025 2.26352C14.4465 2.70711 14.937 3.10153 15.4654 3.44009C16.0404 3.74107 16.6456 3.98034 17.2709 4.15388C18.319 4.48659 19.3092 4.80066 19.7438 5.55172C20.1586 6.26909 19.9445 7.26879 19.7172 8.32759C19.5537 8.97689 19.4578 9.64131 19.4309 10.3103C19.4576 10.9794 19.5534 11.6438 19.7168 12.2931C19.9441 13.3515 20.1582 14.3512 19.7434 15.069C19.3072 15.82 18.3186 16.1341 17.2705 16.4668C16.6453 16.6404 16.0403 16.8797 15.4654 17.1806C14.9371 17.5192 14.4468 17.9136 14.0029 18.3572C13.1864 19.1138 12.4159 19.8276 11.4999 19.8276ZM17.4993 19.4342C17.3055 19.4101 17.1229 19.5307 17.0691 19.7185L16.4885 21.7433L14.405 19.0646L14.5414 18.9385C14.9426 18.5359 15.3853 18.1769 15.862 17.8674C16.3874 17.5959 16.9397 17.3801 17.51 17.2234L17.7293 17.1532L19.72 19.7118L17.4993 19.4342Z" fill="white"/>
<path d="M11.5002 3.17242C7.55807 3.17242 4.3623 6.36818 4.3623 10.3103C4.3623 14.2525 7.55807 17.4483 11.5002 17.4483C15.4424 17.4483 18.6382 14.2525 18.6382 10.3103C18.6336 6.37006 15.4405 3.17703 11.5002 3.17242ZM11.5002 16.6552C7.99611 16.6552 5.15541 13.8145 5.15541 10.3103C5.15541 6.80622 7.99611 3.96552 11.5002 3.96552C15.0044 3.96552 17.8451 6.80622 17.8451 10.3103C17.8409 13.8128 15.0027 16.651 11.5002 16.6552Z" fill="white"/>
<path d="M16.075 8.65394C15.9258 8.44897 15.6877 8.32767 15.4342 8.32757H13.0065L12.253 6.01687C12.1163 5.60074 11.6681 5.37431 11.2519 5.51107C11.0126 5.58973 10.8248 5.7775 10.7461 6.01687L9.99466 8.32757H7.56498C7.12694 8.32737 6.77168 8.68224 6.77148 9.12028C6.77134 9.37407 6.89268 9.61255 7.09785 9.7619L9.06316 11.1895L8.31248 13.5002C8.17706 13.9168 8.40503 14.3642 8.82156 14.4996C9.06311 14.5781 9.32761 14.5362 9.53307 14.3869L11.4996 12.9597L13.4653 14.3873C13.7422 14.593 14.1211 14.593 14.398 14.3873C14.679 14.1876 14.796 13.8273 14.6859 13.5006L13.9352 11.1895L15.9005 9.7619C16.2547 9.50414 16.3328 9.00806 16.075 8.65394ZM13.2357 10.7176C13.0966 10.8187 13.0384 10.9979 13.0917 11.1613L13.9316 13.7461L11.7327 12.1487C11.5938 12.0479 11.4057 12.0479 11.2668 12.1487L9.06792 13.7461L9.90742 11.1613C9.9605 10.998 9.90241 10.819 9.76347 10.718L7.56498 9.12068H10.2826C10.4544 9.12068 10.6066 9.01004 10.6597 8.84666L11.4996 6.26194L12.3395 8.84626C12.3926 9.00964 12.5448 9.12028 12.7166 9.12028L15.4342 9.12068L13.2357 10.7176Z" fill="white"/>
</svg>
