<svg width="23" height="23" viewBox="0 0 23 23" fill="none" xmlns="http://www.w3.org/2000/svg">
<g clip-path="url(#clip0)">
<path d="M22.9487 15.8029C22.7891 15.2215 22.3016 14.7888 21.7053 14.6994V5.9595H22.4669C22.6772 5.9595 22.8477 5.789 22.8477 5.57871V1.77076C22.8477 1.56028 22.6772 1.38996 22.4669 1.38996H5.71193C5.50164 1.38996 5.33113 1.56028 5.33113 1.77076V5.57871C5.33113 5.789 5.50164 5.9595 5.71193 5.9595H6.47352V13.5754H6.09272C5.14761 13.5732 4.22184 13.8441 3.42716 14.3556V12.433C3.42716 12.2225 3.25665 12.0522 3.04636 12.0522H0.380795C0.170503 12.0522 0 12.2225 0 12.433V21.1913C0 21.4016 0.170503 21.5721 0.380795 21.5721H3.04636C3.25665 21.5721 3.42716 21.4016 3.42716 21.1913V19.2689C4.22203 19.7801 5.14761 20.051 6.09272 20.0489H12.3454C12.7786 20.0482 13.2098 19.9913 13.6283 19.8797L21.8729 17.6712C22.6841 17.4501 23.1647 16.6156 22.9487 15.8029ZM6.09272 2.15155H22.0861V5.19791H6.09272V2.15155ZM7.23511 5.9595H20.9437V14.7648L16.5242 15.95C16.3422 15.516 15.9709 15.1901 15.517 15.0657L10.3862 13.6896C10.0972 13.6135 9.79971 13.575 9.50091 13.5754H7.23511V5.9595ZM2.66557 20.8105H0.76159V12.8138H2.66557V20.8105ZM21.6752 16.9354L13.4321 19.144C13.0776 19.2386 12.7124 19.2868 12.3454 19.2873H6.09272C5.1861 19.2894 4.30347 18.9952 3.57944 18.4495L3.42716 18.3353V15.289L3.57944 15.1746C4.30347 14.6289 5.1861 14.3346 6.09272 14.337H9.50091C9.73352 14.3368 9.96538 14.3669 10.1905 14.4264L15.3198 15.8014C15.6228 15.8849 15.8446 16.1447 15.8792 16.4572C15.8833 16.4728 15.8883 16.4883 15.8945 16.5033C15.89 16.5197 15.8867 16.5362 15.8844 16.5532C15.8848 16.6151 15.8764 16.6768 15.8593 16.7363C15.7697 17.0682 15.4691 17.2989 15.1253 17.2995C15.0581 17.3001 14.9916 17.2915 14.9269 17.2744L11.6901 16.4065C11.5574 16.367 11.4136 16.4027 11.3147 16.4998C11.216 16.5969 11.1775 16.7398 11.2145 16.8733C11.2515 17.0067 11.358 17.1097 11.4928 17.1418L14.7296 18.0101C14.8588 18.0442 14.9921 18.0613 15.126 18.0611C15.8106 18.0607 16.4106 17.6028 16.5916 16.9423C16.6127 16.8659 16.6271 16.7878 16.6347 16.709L21.2769 15.4641C21.31 15.4558 21.3459 15.4472 21.3798 15.4416C21.7589 15.3927 22.1153 15.6324 22.2133 16.0017C22.2304 16.066 22.239 16.1324 22.2384 16.199C22.239 16.5437 22.008 16.8456 21.6752 16.9354Z" fill="white"/>
<path d="M12.1855 7.48268H15.9934C16.2037 7.48268 16.3742 7.31217 16.3742 7.10188C16.3742 6.8914 16.2037 6.72108 15.9934 6.72108H12.1855C11.9752 6.72108 11.8047 6.8914 11.8047 7.10188C11.8047 7.31217 11.9752 7.48268 12.1855 7.48268Z" fill="white"/>
</g>
<defs>
<clipPath id="clip0">
<rect width="23" height="23" fill="white"/>
</clipPath>
</defs>
</svg>
